<?xml version="1.0" standalone="no"?>
<!DOCTYPE svg PUBLIC "-//W3C//DTD SVG 20010904//EN"
 "http://www.w3.org/TR/2001/REC-SVG-20010904/DTD/svg10.dtd">
<svg version="1.0" xmlns="http://www.w3.org/2000/svg"
 width="500.000000pt" height="500.000000pt" viewBox="0 0 500.000000 500.000000"
 preserveAspectRatio="xMidYMid meet">

<g transform="translate(0.000000,500.000000) scale(0.100000,-0.100000)"
fill="#000000" stroke="none">
<path d="M2340 4719 c-518 -31 -1028 -261 -1399 -630 -197 -197 -316 -361
-436 -604 -110 -222 -179 -447 -215 -705 -17 -116 -14 -457 5 -585 141 -975
892 -1738 1860 -1890 218 -35 539 -30 755 11 440 84 849 301 1163 619 334 337
536 732 623 1220 26 143 26 536 1 687 -112 664 -480 1214 -1047 1563 -381 234
-836 343 -1310 314z m284 -345 c12 -11 16 -35 16 -89 l0 -73 -29 -4 c-17 -2
-27 0 -24 5 3 5 -8 6 -28 2 -19 -4 -35 -11 -37 -15 -4 -11 -50 -60 -55 -60 -3
0 -7 15 -11 32 -3 18 -21 47 -38 65 -31 32 -31 33 -12 47 10 8 29 12 41 9 21
-5 22 -2 20 33 l-2 38 60 12 c83 16 82 16 99 -2z m177 -65 c48 -18 59 -26 59
-44 0 -16 11 -27 40 -40 45 -20 46 -22 23 -47 -20 -23 -25 -23 -53 2 -16 14
-37 20 -72 20 -30 0 -47 4 -43 10 4 6 -10 10 -34 10 -37 0 -41 2 -41 25 0 17
8 29 25 37 14 6 25 19 25 30 0 23 0 23 71 -3z m359 -134 c0 -6 -16 -43 -35
-84 -19 -40 -35 -75 -35 -78 0 -3 29 -3 64 0 l65 6 22 -46 c13 -26 18 -48 13
-50 -5 -2 -25 -12 -44 -21 -34 -17 -36 -17 -81 5 -52 24 -80 58 -99 117 -7 21
-28 56 -46 76 l-34 38 32 6 c18 4 58 25 88 46 l55 40 17 -22 c10 -13 18 -28
18 -33z m-746 -99 c-8 -12 -18 -21 -22 -22 -21 -2 -72 -41 -72 -56 0 -9 -9
-20 -20 -23 -21 -7 -28 -25 -10 -25 6 0 10 -9 10 -21 0 -11 -3 -19 -7 -17 -59
30 -110 50 -147 57 -25 5 -62 19 -81 32 l-34 24 32 16 c18 9 57 20 87 23 96
12 112 17 106 32 -4 10 2 14 18 14 42 0 57 10 46 30 -8 15 -6 21 7 29 15 8 26
2 60 -31 39 -38 41 -43 27 -62z m-153 -186 c20 -11 26 -40 8 -40 -7 0 -9 -9
-6 -21 4 -16 2 -19 -11 -14 -15 6 -128 24 -157 25 -6 0 -16 9 -22 20 -12 18
-10 19 50 14 47 -5 67 -2 82 10 24 18 30 19 56 6z m412 -30 c3 -11 1 -20 -4
-20 -5 0 -9 2 -9 4 0 2 -3 11 -6 20 -3 9 -2 16 4 16 5 0 12 -9 15 -20z m37
-10 c0 -5 -4 -10 -10 -10 -5 0 -10 5 -10 10 0 6 5 10 10 10 6 0 10 -4 10 -10z
m-465 -71 c33 -16 47 -49 20 -49 -14 0 -14 -4 4 -26 28 -35 26 -46 -5 -34 -36
14 -42 12 -19 -6 34 -26 115 -106 124 -123 8 -14 -2 -16 -90 -16 -97 0 -98 0
-66 17 l32 16 -50 7 c-87 11 -106 17 -102 28 2 6 14 14 28 18 23 5 23 6 -6 12
-16 3 -46 9 -66 13 -31 5 -38 11 -43 36 -5 23 0 37 19 60 14 16 25 36 25 43 0
7 8 16 18 19 33 9 147 0 177 -15z m570 -130 c2 -22 0 -27 -6 -18 -10 16 -12
66 -3 56 4 -4 8 -21 9 -38z m-59 -42 l2 -62 -15 48 c-11 38 -12 51 -3 63 7 8
13 14 14 14 0 0 2 -28 2 -63z m98 18 c5 -22 4 -26 -4 -15 -5 8 -10 24 -10 34
0 26 6 18 14 -19z m44 -38 c-3 -31 1 -45 18 -62 26 -27 41 -104 25 -132 -10
-17 -11 -17 -17 4 -3 13 -10 20 -15 17 -5 -3 -9 -1 -9 5 0 6 -13 26 -30 44
-37 42 -37 51 -5 83 22 21 25 31 19 61 -5 27 -4 34 6 28 7 -4 10 -23 8 -48z
m53 11 c-1 -5 -1 -20 -1 -35 0 -33 -16 -20 -26 20 -5 24 -4 28 10 25 9 -1 17
-6 17 -10z m240 -25 c-8 -15 -10 -15 -11 -2 0 17 10 32 18 25 2 -3 -1 -13 -7
-23z m-181 -4 c0 -11 -5 -30 -12 -42 -11 -22 -12 -22 -19 6 -4 16 -5 35 -2 43
8 22 33 17 33 -7z m50 -1 c-1 -7 -7 -26 -15 -43 l-13 -30 -1 43 c-1 31 3 42
14 42 8 0 15 -6 15 -12z m45 -19 c-19 -36 -25 -35 -18 4 3 15 12 27 19 27 12
0 12 -5 -1 -31z m41 5 c-4 -9 -9 -15 -11 -12 -3 3 -3 13 1 22 4 9 9 15 11 12
3 -3 3 -13 -1 -22z m-57 -56 c9 15 41 5 41 -13 0 -26 -22 -75 -34 -75 -7 0
-19 11 -26 25 -7 13 -17 22 -22 19 -12 -8 -10 34 3 59 l12 21 9 -24 c6 -17 11
-21 17 -12z m-72 -10 c-3 -8 -6 -5 -6 6 -1 11 2 17 5 13 3 -3 4 -12 1 -19z
m-586 -19 c13 -6 18 -17 15 -26 -4 -10 -2 -13 8 -10 8 3 17 -1 20 -8 3 -9 12
-12 23 -8 10 3 15 3 11 -2 -4 -4 6 -18 22 -30 23 -17 27 -25 18 -32 -18 -15
-99 -55 -103 -51 -1 2 -21 25 -44 51 l-41 49 22 39 c24 44 22 43 49 28z m395
-15 c-3 -9 -6 -21 -6 -27 0 -7 -5 -4 -11 6 -11 18 -5 37 13 37 5 0 7 -7 4 -16z
m174 1 c0 -8 -4 -15 -10 -15 -5 0 -7 7 -4 15 4 8 8 15 10 15 2 0 4 -7 4 -15z
m39 -35 c1 -13 0 -13 -9 0 -5 8 -9 24 -9 35 l0 20 9 -20 c5 -11 9 -27 9 -35z
m-185 -23 c-7 -18 -24 -23 -24 -8 0 22 13 42 22 33 5 -5 6 -16 2 -25z m225
-32 c-1 -21 -3 -24 -6 -10 -3 11 -9 24 -13 29 -5 5 -6 15 -3 23 9 22 23 -5 22
-42z m-208 -8 c-8 -8 -11 -5 -11 9 0 27 14 41 18 19 2 -9 -1 -22 -7 -28z m179
-14 c0 -13 -4 -23 -9 -23 -12 0 -18 29 -13 53 6 24 22 2 22 -30z m-133 -17
c-4 -9 -11 -16 -17 -16 -11 0 -13 30 -3 56 6 16 7 16 16 -4 5 -11 7 -28 4 -36z
m45 -18 c-17 -17 -33 1 -26 30 11 45 18 49 28 14 6 -22 6 -36 -2 -44z m52 10
c-3 -4 -9 -8 -15 -8 -11 0 -12 53 -2 64 9 9 25 -43 17 -56z m-292 35 c25 -23
23 -28 -23 -48 -37 -17 -44 -17 -68 -4 -14 8 -28 25 -29 38 -3 22 -1 23 31 17
21 -4 38 -2 42 4 9 15 26 12 47 -7z m333 -53 c-3 -5 -14 -10 -23 -10 -15 0
-15 2 -2 10 20 13 33 13 25 0z m-98 -26 c-3 -3 -12 -4 -19 -1 -8 3 -5 6 6 6
11 1 17 -2 13 -5z m-2119 -1246 c16 -16 15 -68 0 -69 -7 0 -33 -1 -58 -2 -41
-2 -45 -4 -48 -29 -3 -28 -3 -28 53 -28 l56 0 -3 -37 -3 -38 -52 -3 -52 -3 -3
-67 -3 -67 -40 0 -40 0 0 170 0 170 80 6 c44 3 85 6 91 7 5 1 15 -3 22 -10z
m209 6 c18 -5 31 -34 77 -171 31 -91 53 -170 50 -174 -3 -5 -21 -9 -40 -9 -31
0 -37 4 -50 35 -13 33 -17 35 -62 35 -45 0 -49 -2 -63 -32 -11 -26 -21 -34
-47 -36 -22 -2 -34 2 -38 13 -8 21 93 316 114 333 18 13 27 14 59 6z m244 -4
c15 -9 19 -22 19 -63 l1 -52 34 56 c36 58 66 76 106 64 27 -9 25 -18 -26 -97
l-46 -70 51 -79 c61 -97 62 -109 13 -109 -49 0 -54 4 -94 70 l-34 55 -5 -60
-5 -60 -40 0 -40 0 -3 169 c-3 173 0 185 36 186 7 0 22 -5 33 -10z m437 -2
c17 -17 15 -65 -4 -72 -9 -3 -38 -6 -65 -6 -46 0 -49 -2 -49 -25 0 -24 3 -25
54 -25 46 0 56 -3 61 -20 3 -11 3 -29 0 -40 -5 -17 -15 -20 -61 -20 -53 0 -54
0 -54 -30 0 -29 1 -29 63 -32 l62 -3 0 -35 0 -35 -105 0 -105 0 -3 165 c-2
146 -1 166 15 177 22 17 175 17 191 1z m288 5 c9 -3 43 -47 75 -96 l58 -90 3
89 3 89 40 0 40 0 3 -159 c3 -175 -1 -189 -52 -184 -27 3 -40 16 -91 92 l-60
88 -5 -88 c-5 -89 -5 -89 -33 -92 -53 -6 -57 6 -57 179 0 140 2 159 18 168 20
12 34 13 58 4z m1865 -14 c24 -12 24 -31 2 -58 -16 -19 -22 -20 -55 -10 -55
18 -95 -2 -108 -52 -11 -41 -6 -81 16 -116 16 -25 62 -31 108 -13 53 20 77
-52 26 -77 -14 -7 -50 -13 -80 -13 -102 0 -156 49 -167 152 -10 99 29 176 101
198 35 11 129 5 157 -11z m299 -1 c58 -30 80 -73 80 -158 0 -110 -45 -169
-138 -178 -103 -9 -166 42 -179 146 -18 158 105 257 237 190z m-1701 -7 c21
-38 111 -314 105 -322 -3 -5 -21 -9 -40 -9 -31 0 -37 4 -50 35 -13 33 -17 35
-62 35 -45 0 -49 -2 -63 -32 -11 -26 -21 -34 -47 -36 -22 -2 -34 2 -38 13 -5
12 43 167 97 313 7 18 16 22 48 22 29 0 43 -5 50 -19z m389 -18 c3 -33 3 -33
-42 -33 l-45 0 -3 -137 -3 -138 -40 0 -40 0 -5 135 -5 135 -42 3 c-42 3 -43 4
-43 38 l0 35 133 -3 132 -3 3 -32z m287 2 c0 -28 -3 -30 -42 -33 l-43 -3 0
-128 c0 -141 -5 -155 -57 -149 l-28 3 -5 135 -5 135 -42 3 c-42 3 -43 4 -43
38 l0 35 133 -3 132 -3 0 -30z m125 -4 c11 -22 24 -42 29 -45 5 -3 21 14 35
39 25 41 30 45 66 45 21 0 41 -4 44 -8 3 -5 -17 -44 -44 -88 -48 -77 -50 -81
-50 -155 0 -85 -10 -103 -57 -97 -28 3 -28 4 -33 88 -5 80 -8 89 -53 160 -26
41 -47 80 -47 87 0 9 15 13 45 13 42 0 46 -2 65 -39z m1105 -266 c0 -36 -3
-40 -28 -43 -36 -4 -57 13 -57 48 0 36 8 42 50 38 34 -3 35 -4 35 -43z"/>
<path d="M660 1859 l0 -160 28 3 c26 3 27 5 30 71 l3 67 55 0 c52 0 55 1 52
23 -3 19 -10 22 -55 25 l-53 3 0 40 0 39 55 0 c52 0 55 1 55 25 0 25 -1 25
-85 25 l-85 0 0 -161z"/>
<path d="M955 1908 c-21 -62 -46 -134 -56 -160 l-19 -48 29 0 c23 0 30 6 37
33 9 31 11 32 72 35 l61 3 15 -36 c12 -27 21 -35 40 -35 15 0 26 1 26 3 0 1
-24 72 -54 157 -52 151 -54 155 -84 158 -30 3 -30 3 -67 -110z m109 -75 c7
-22 4 -23 -38 -23 -32 0 -46 4 -46 14 0 12 19 71 36 116 6 14 20 -19 48 -107z"/>
<path d="M1011 1867 c-14 -37 -14 -37 9 -37 21 0 24 12 10 45 -7 19 -9 18 -19
-8z"/>
<path d="M1240 1860 l0 -160 25 0 c24 0 25 2 25 75 0 41 4 75 9 75 5 0 31 -34
56 -75 41 -65 51 -75 76 -75 16 0 29 2 29 5 0 3 -23 40 -51 81 -28 42 -48 82
-45 90 3 8 24 41 46 74 22 32 40 61 40 64 0 4 -11 6 -25 6 -21 0 -34 -14 -73
-75 -26 -41 -50 -75 -54 -75 -5 0 -8 34 -8 75 0 73 -1 75 -25 75 l-25 0 0
-160z"/>
<path d="M1540 1860 l0 -160 90 0 c83 0 90 2 90 20 0 16 -8 19 -62 22 l-63 3
-3 48 -3 47 60 0 c54 0 61 2 61 20 0 16 -8 19 -57 22 l-58 3 -3 43 -3 42 65 0
c64 0 66 1 66 25 0 25 -1 25 -90 25 l-90 0 0 -160z"/>
<path d="M1967 2013 c-4 -3 -7 -75 -7 -160 l0 -153 25 0 c25 0 25 0 25 99 0
55 3 102 8 105 4 2 38 -43 76 -100 61 -92 72 -104 97 -104 l29 0 0 160 0 160
-25 0 -25 0 0 -105 c0 -58 -4 -105 -8 -105 -5 0 -39 47 -76 105 -53 82 -72
105 -90 105 -13 0 -26 -3 -29 -7z"/>
<path d="M3710 2003 c-20 -10 -43 -33 -52 -53 -22 -44 -24 -140 -3 -184 27
-57 103 -84 181 -65 38 10 44 15 42 33 -2 12 -9 20 -18 18 -81 -19 -130 -8
-149 34 -19 43 -14 128 10 158 20 25 27 27 80 25 106 -4 107 42 2 48 -42 3
-68 -1 -93 -14z"/>
<path d="M4031 2003 c-91 -48 -97 -222 -9 -286 34 -25 126 -27 162 -3 77 50
86 204 16 271 -38 37 -117 45 -169 18z m128 -52 c41 -41 34 -164 -12 -196 -23
-16 -54 -19 -82 -9 -46 18 -62 149 -24 198 26 33 88 37 118 7z"/>
<path d="M4072 1948 c-30 -15 -46 -76 -32 -127 13 -49 30 -63 72 -59 40 4 58
34 58 101 0 38 -5 53 -25 72 -26 27 -38 29 -73 13z"/>
<path d="M2375 1938 c-15 -46 -41 -118 -56 -160 l-28 -78 29 0 c25 0 31 5 38
33 8 32 8 32 72 32 64 0 64 0 74 -32 7 -28 14 -33 38 -33 34 0 37 -18 -32 180
-46 131 -48 135 -78 138 -29 3 -31 1 -57 -80z m83 -60 l18 -63 -39 -3 c-21 -2
-42 -1 -45 2 -7 8 29 126 39 126 5 0 17 -28 27 -62z"/>
<path d="M2421 1867 c-14 -37 -14 -37 9 -37 21 0 24 12 10 45 -7 19 -9 18 -19
-8z"/>
<path d="M2614 2005 c-10 -24 5 -35 47 -35 l39 0 0 -135 0 -135 30 0 30 0 0
135 0 135 45 0 c41 0 45 2 45 25 l0 25 -115 0 c-92 0 -117 -3 -121 -15z"/>
<path d="M2900 1995 c0 -23 4 -25 45 -25 l45 0 0 -135 0 -135 30 0 30 0 0 135
0 135 45 0 c41 0 45 2 45 25 l0 25 -120 0 -120 0 0 -25z"/>
<path d="M3190 2013 c0 -5 20 -42 45 -82 43 -70 45 -76 45 -152 l0 -79 30 0
30 0 0 77 c0 73 2 80 44 147 23 39 46 77 50 84 5 8 -2 12 -22 12 -26 0 -35 -8
-64 -61 l-34 -60 -35 58 c-27 45 -40 59 -61 61 -16 2 -28 -1 -28 -5z"/>
<path d="M4327 1753 c-4 -3 -7 -17 -7 -30 0 -21 4 -24 27 -21 18 2 29 10 31
22 5 26 -33 48 -51 29z"/>
</g>
</svg>
